<svg xmlns="http://www.w3.org/2000/svg" viewBox="0 0 128 128" fill="none">
  <!-- Dog head -->
  <rect x="20" y="12" width="88" height="56" rx="20" stroke="#ffffff" stroke-width="6"/>
  <circle cx="44" cy="44" r="6" fill="#ffffff"/>
  <circle cx="84" cy="44" r="6" fill="#ffffff"/>
  <path d="M56 54c6 5 10 5 16 0" stroke="#ffffff" stroke-width="6" stroke-linecap="round"/>
  <!-- Ears -->
  <path d="M20 32c-6 6-10 14-10 22 0 7 3 13 8 18" stroke="#ffffff" stroke-width="6" stroke-linecap="round"/>
  <path d="M108 32c6 6 10 14 10 22 0 7-3 13-8 18" stroke="#ffffff" stroke-width="6" stroke-linecap="round"/>
  <!-- Snout -->
  <path d="M64 50c6 0 10-4 10-8 0-4-4-8-10-8s-10 4-10 8c0 4 4 8 10 8z" stroke="#ffffff" stroke-width="5"/>
  <circle cx="64" cy="44" r="2.5" fill="#ffffff"/>
  <!-- Body arms around camera -->
  <path d="M34 78c0 16 0 26 10 36" stroke="#ffffff" stroke-width="8" stroke-linecap="round"/>
  <path d="M94 78c0 16 0 26-10 36" stroke="#ffffff" stroke-width="8" stroke-linecap="round"/>
  <!-- Camera body -->
  <rect x="32" y="70" width="64" height="46" rx="12" stroke="#ffffff" stroke-width="6"/>
  <!-- Camera lens -->
  <circle cx="64" cy="93" r="16" stroke="#ffffff" stroke-width="6"/>
  <circle cx="64" cy="93" r="8" fill="#ffffff"/>
  <!-- Shutter dot -->
  <circle cx="92" cy="78" r="3" fill="#ffffff"/>
</svg>

